# xmcd database file
#
# Track frame offsets:
# 150
# 13982
# 31754
# 48006
# 62619
# 75795
# 92200
# 107468
# 126178
# 141023
# 157679
# 173273
# 192178
# 208053
# 228894
# 246011
# 272986
# 287085
# 303181
# 315717
#
# Disc length: 4502 seconds
#
# Revision: 1
# Processed by: cddbd v1.5.1PL0 Copyright (c) Steve Scherf et al.
# Submitted via: CD-Runner 2005.30
#
DISCID=f5119414
DTITLE=Various Artist - U-Mode March 2005
DYEAR=2005
DGENRE=Rock
TTITLE0=Mariah Carey - It's Like That (No Rap)
TTITLE1=Akon - Lonely (Album Version)
TTITLE2=50 Cent - Disco Inferno (Edited)
TTITLE3=Beck - E-Pro
TTITLE4=Queens Of The Stone Age - Little Sister
TTITLE5=Lindsay Lohan - Over
TTITLE6=Jamie Cullum - Everlasting Love
TTITLE7=Sting - My Funny Valentine
TTITLE8=Will Smith - Switch (Album Version)
TTITLE9=Baby Bash - Baby I'm Back feat. Akon (Radio Edit)
TTITLE10=The Game - Hate It Or Love It feat. 50 Cent (Clean Version)
TTITLE11=Eminem - Mockingbird (Edited Version)
TTITLE12=The Others - Lackey
TTITLE13=Thirteen Senses - Thru The Glass
TTITLE14=Rammstein - Amerika
TTITLE15=Paul Gilbert - Space Ship One
TTITLE16=Jack Johnson - Sitting, Waiting, Wishing
TTITLE17=Rufus Wainwright - The One You Love (Radio Edit)
TTITLE18=Sarah Vaughan - Lover's Concerto
TTITLE19=Hayley Westenra - Wiegenlied
EXTD=
EXTT0=
EXTT1=
EXTT2=
EXTT3=
EXTT4=
EXTT5=
EXTT6=
EXTT7=
EXTT8=
EXTT9=
EXTT10=
EXTT11=
EXTT12=
EXTT13=
EXTT14=
EXTT15=
EXTT16=
EXTT17=
EXTT18=
EXTT19=
PLAYORDER=
